<svg width="45" height="45" viewBox="0 0 45 45" fill="none" xmlns="http://www.w3.org/2000/svg">
<path d="M22.5927 27.3226C22.5643 29.0492 29.9831 28.9765 29.9831 28.9765C29.9831 28.9765 30.0384 31.172 27.0425 34.6676C23.1811 39.1748 14.8349 40.8423 12.0593 35.7194C11.7004 35.0795 11.491 34.3675 11.4465 33.6362C11.402 32.905 11.5236 32.1731 11.8023 31.495C12.1258 32.1912 12.5558 32.8335 13.0769 33.3988C13.9818 34.3718 15.0811 35.1462 16.3043 35.6725C15.3097 34.9654 14.3949 34.1536 13.5756 33.2512C12.9878 32.53 12.5367 31.7086 12.2443 30.8271L12.7918 30.0959C14.0833 31.4531 15.5167 32.6694 17.0677 33.7243C17.9915 34.4318 19.0798 34.8964 20.2319 35.0749C19.1241 34.7395 18.0945 34.1884 17.2027 33.4538C15.776 32.2175 14.5095 30.8096 13.4323 29.2624C13.9259 28.6343 14.459 27.9808 15.0189 27.2888C15.886 27.9002 16.825 28.4041 17.815 28.7892C19.0658 29.2449 20.3899 29.4692 21.7218 29.4508C20.4548 29.128 19.2096 28.7259 17.9937 28.2468C17.0889 27.8743 16.2844 27.2963 15.6447 26.559C16.6844 25.2776 17.7894 23.9972 18.9074 22.7171C19.6371 23.1527 20.4287 23.4765 21.2553 23.6777C22.0281 23.8912 22.8476 23.8685 23.6071 23.6126C22.8344 23.5448 22.0736 23.3796 21.3429 23.1208C20.6652 22.8804 20.0575 22.4779 19.573 21.949C21.0772 20.2207 28.2213 12.2485 28.2213 12.2485L21.5786 19.1122C21.0586 17.851 20.6731 16.539 20.4286 15.1977C20.3043 14.2374 20.3468 13.263 20.5544 12.3171C20.5544 12.3171 20.3673 13.3658 20.2636 14.9094C20.3099 16.5117 20.5691 18.1009 21.0346 19.6357L16.9562 23.8407C16.2476 22.7119 15.6296 21.5294 15.1077 20.3042C14.4032 18.4327 13.8326 16.5141 13.4001 14.5626C13.5057 16.4014 13.8353 18.2207 14.3818 19.9806C14.9079 21.5304 15.5601 23.0351 16.3319 24.4796L13.5023 27.3937C12.2181 26.0978 11.0402 24.7019 9.97971 23.2194C9.07698 21.4614 8.28682 19.6485 7.61394 17.7916C7.88086 19.7878 8.52719 21.7153 9.51848 23.4715C10.7905 25.5311 12.183 27.4109 12.7581 28.1735L11.8282 29.1321C10.3392 28.5374 8.95872 27.703 7.74213 26.6626C6.25581 25.1732 4.9099 23.5515 3.7213 21.8178C4.67862 23.7176 5.88336 25.4838 7.30445 27.0709C8.44037 28.0975 9.69218 28.9896 11.0348 29.7294C10.8669 29.8824 10.6948 30.0224 10.5186 30.1494C9.6119 30.2987 8.6826 30.2345 7.80534 29.9619C6.95674 29.5983 6.18189 29.0839 5.51884 28.4439C6.05526 29.2908 6.82972 29.9627 7.74629 30.3764C8.27674 30.6224 8.84237 30.7851 9.42298 30.8585C3.59893 34.0089 -1.20144 26.5413 0.669654 19.9756C2.15211 14.8059 7.97655 10.0454 7.97655 10.0454C7.7735 11.7815 7.8682 13.5393 8.25661 15.2441C8.89704 17.5919 10.6042 21.7753 12.7103 21.5633C14.8163 21.3512 8.78246 14.2399 9.61001 9.98136C10.3092 6.38298 17.7607 5.90834 17.7607 5.90834C17.2007 6.15779 16.7028 6.52686 16.3024 6.98933C15.9021 7.45179 15.6091 7.99629 15.4444 8.58411C14.6934 10.5715 16.1879 17.3614 17.8145 17.7128C19.924 18.0851 15.5981 10.3526 19.3955 7.35065C21.5655 5.63337 24.4153 7.83584 26.6618 8.61298C28.1429 9.07498 29.7156 9.16776 31.2411 8.88315C31.2411 8.88315 31.339 10.0794 31.4642 12.7824C31.5895 15.4854 33.2307 17.3303 31.8847 18.9703C30.5387 20.6102 25.5788 19.6586 26.0384 21.0945C26.4979 22.5304 32.0429 20.4662 32.0429 20.4662C32.0429 20.4662 32.0215 21.7644 31.8418 24.748C31.6621 27.7316 22.6329 25.6741 22.5927 27.3226Z" fill="#0EA91E"/>
</svg>
